<svg width="70" height="70" viewBox="0 0 70 70" fill="none" xmlns="http://www.w3.org/2000/svg">
<path d="M6.64136 46.3858C6.86799 46.3858 7.08533 46.2958 7.24557 46.1356C7.40582 45.9753 7.49584 45.758 7.49584 45.5314V11.7105H62.5133V45.5314C62.5133 45.758 62.6034 45.9753 62.7636 46.1356C62.9239 46.2958 63.1412 46.3858 63.3678 46.3858C63.5945 46.3858 63.8118 46.2958 63.972 46.1356C64.1323 45.9753 64.2223 45.758 64.2223 45.5314V10.8545C64.2223 10.6279 64.1323 10.4105 63.972 10.2503C63.8118 10.09 63.5945 10 63.3678 10H6.64136C6.41474 10 6.1974 10.09 6.03715 10.2503C5.87691 10.4105 5.78688 10.6279 5.78688 10.8545V45.5314C5.78688 45.758 5.87691 45.9753 6.03715 46.1356C6.1974 46.2958 6.41474 46.3858 6.64136 46.3858Z" fill="#7036BA"/>
<path d="M12.0515 15.4485C11.9392 15.4483 11.8279 15.4702 11.7241 15.5131C11.6202 15.5559 11.5258 15.6188 11.4463 15.6982C11.3668 15.7776 11.3038 15.8718 11.2607 15.9756C11.2177 16.0794 11.1955 16.1906 11.1955 16.3029V44.5911C11.1955 44.8182 11.2857 45.0359 11.4462 45.1964C11.6068 45.357 11.8245 45.4471 12.0515 45.4471H57.9577C58.1847 45.4471 58.4024 45.357 58.5629 45.1964C58.7235 45.0359 58.8137 44.8182 58.8137 44.5911V16.3029C58.8137 16.1906 58.7915 16.0794 58.7485 15.9756C58.7054 15.8718 58.6424 15.7776 58.5629 15.6982C58.4833 15.6188 58.389 15.5559 58.2851 15.5131C58.1813 15.4702 58.07 15.4483 57.9577 15.4485H12.0515ZM57.1032 43.7336H12.906V17.1574H57.1032V43.7336Z" fill="#7036BA"/>
<path d="M69.144 48.9569H37.9279C37.7013 48.9569 37.4839 49.047 37.3237 49.2072C37.1634 49.3675 37.0734 49.5848 37.0734 49.8114C37.0734 50.038 37.1634 50.2554 37.3237 50.4156C37.4839 50.5759 37.7013 50.6659 37.9279 50.6659H40.0304V51.4653C40.03 51.9821 39.8245 52.4777 39.459 52.8432C39.0935 53.2087 38.5979 53.4142 38.081 53.4146H31.9266C31.41 53.4138 30.9148 53.2081 30.5496 52.8427C30.1845 52.4772 29.9792 51.9819 29.9788 51.4653V50.6659H32.2482C32.4748 50.6659 32.6922 50.5759 32.8524 50.4156C33.0127 50.2554 33.1027 50.038 33.1027 49.8114C33.1027 49.5848 33.0127 49.3675 32.8524 49.2072C32.6922 49.047 32.4748 48.9569 32.2482 48.9569H0.856012C0.743671 48.9567 0.632393 48.9787 0.528546 49.0216C0.424699 49.0644 0.330321 49.1273 0.250813 49.2067C0.171305 49.286 0.108227 49.3803 0.0651896 49.4841C0.0221522 49.5878 -1.804e-07 49.6991 0 49.8114V53.1574C0.00202909 54.8618 0.680535 56.4957 1.88647 57.7002C3.0924 58.9047 4.72714 59.5813 6.43157 59.5813H63.5761C65.2792 59.5793 66.912 58.9018 68.1162 57.6975C69.3205 56.4933 69.998 54.8605 70 53.1574V49.8114C70 49.6991 69.9778 49.5878 69.9348 49.4841C69.8918 49.3803 69.8287 49.286 69.7492 49.2067C69.6697 49.1273 69.5753 49.0644 69.4715 49.0216C69.3676 48.9787 69.2563 48.9567 69.144 48.9569ZM68.2895 53.1574C68.2883 54.4071 67.7913 55.6053 66.9076 56.4889C66.024 57.3726 64.8258 57.8696 63.5761 57.8708H6.4331C5.1834 57.8696 3.98523 57.3726 3.10155 56.4889C2.21788 55.6053 1.7209 54.4071 1.71968 53.1574V50.6659H28.2668V51.4653C28.2676 52.435 28.653 53.3648 29.3386 54.0507C30.0242 54.7365 30.9538 55.1224 31.9236 55.1236H38.078C38.5588 55.124 39.035 55.0297 39.4794 54.8461C39.9237 54.6624 40.3276 54.3931 40.6679 54.0534C41.0081 53.7137 41.2782 53.3103 41.4626 52.8662C41.6469 52.4221 41.742 51.9461 41.7424 51.4653V50.6659H68.2895V53.1574Z" fill="#7036BA"/>
<path d="M39.3864 32.4872L30.6678 32.4812L30.6718 38.4013C30.667 38.6907 30.5487 38.9664 30.3424 39.1691C30.1362 39.3718 29.8584 39.4852 29.569 39.485C29.2797 39.4848 29.0018 39.371 28.7952 39.168C28.5887 38.965 28.47 38.6892 28.4648 38.3998L28.4552 24.3526C28.4601 24.0633 28.5784 23.7876 28.7846 23.5849C28.9909 23.3822 29.2686 23.2687 29.558 23.2689C29.8474 23.2691 30.1252 23.383 30.3318 23.5859C30.5383 23.7889 30.657 24.0648 30.6622 24.3541L30.6662 30.2743L39.3849 30.2802L39.3808 24.3601C39.3857 24.0708 39.5039 23.795 39.7102 23.5923C39.9165 23.3896 40.1942 23.2762 40.4836 23.2764C40.7729 23.2766 41.0508 23.3904 41.2574 23.5934C41.4639 23.7964 41.5826 24.0723 41.5878 24.3616L41.5974 38.4088C41.5925 38.6981 41.4743 38.9738 41.268 39.1765C41.0617 39.3792 40.784 39.4927 40.4946 39.4925C40.2052 39.4923 39.9274 39.3784 39.7208 39.1755C39.5143 38.9725 39.3956 38.6966 39.3904 38.4073L39.3864 32.4872ZM45.6283 30.6075C45.6256 30.461 45.6522 30.3155 45.7064 30.1794C45.7606 30.0433 45.8414 29.9194 45.9441 29.815C46.0467 29.7105 46.1692 29.6276 46.3043 29.571C46.4394 29.5145 46.5844 29.4854 46.731 29.4855C46.8775 29.4856 47.0226 29.5149 47.1578 29.5716C47.293 29.6284 47.4156 29.7115 47.5184 29.8161C47.6212 29.9207 47.7021 30.0446 47.7565 30.1808C47.8109 30.3169 47.8377 30.4625 47.8352 30.609L47.8363 32.1698C47.839 32.3164 47.8124 32.4619 47.7582 32.598C47.7039 32.7341 47.6232 32.8579 47.5205 32.9624C47.4179 33.0668 47.2954 33.1498 47.1603 33.2064C47.0252 33.2629 46.8801 33.292 46.7336 33.2919C46.587 33.2918 46.4419 33.2625 46.3068 33.2058C46.1716 33.149 46.049 33.0659 45.9462 32.9613C45.8434 32.8567 45.7625 32.7327 45.7081 32.5966C45.6536 32.4604 45.6269 32.3149 45.6293 32.1683L45.6283 30.6075ZM22.2163 30.5916C22.2211 30.3022 22.3394 30.0265 22.5457 29.8238C22.7519 29.6211 23.0297 29.5077 23.3191 29.5079C23.6084 29.508 23.8863 29.6219 24.0929 29.8249C24.2994 30.0279 24.418 30.3037 24.4233 30.5931L24.4243 32.1539C24.4195 32.4432 24.3012 32.7189 24.095 32.9216C23.8887 33.1243 23.611 33.2378 23.3216 33.2376C23.0322 33.2374 22.7543 33.1235 22.5478 32.9206C22.3413 32.7176 22.2226 32.4417 22.2174 32.1524L22.2163 30.5916ZM42.5045 27.4838C42.5019 27.3373 42.5285 27.1917 42.5827 27.0557C42.6369 26.9196 42.7177 26.7957 42.8203 26.6913C42.923 26.5868 43.0454 26.5039 43.1805 26.4473C43.3157 26.3907 43.4607 26.3616 43.6073 26.3617C43.7538 26.3618 43.8989 26.3911 44.0341 26.4479C44.1693 26.5046 44.2918 26.5877 44.3946 26.6923C44.4974 26.7969 44.5784 26.9209 44.6328 27.0571C44.6872 27.1932 44.714 27.3388 44.7115 27.4853L44.7168 35.2893C44.7195 35.4358 44.6929 35.5814 44.6387 35.7175C44.5845 35.8535 44.5037 35.9774 44.401 36.0819C44.2984 36.1863 44.1759 36.2692 44.0408 36.3258C43.9057 36.3824 43.7607 36.4115 43.6141 36.4114C43.4676 36.4113 43.3225 36.382 43.1873 36.3252C43.0521 36.2685 42.9295 36.1854 42.8267 36.0808C42.724 35.9762 42.643 35.8522 42.5886 35.7161C42.5342 35.5799 42.5074 35.4343 42.5099 35.2878L42.5045 27.4838ZM25.3358 27.4721C25.3406 27.1828 25.4589 26.9071 25.6651 26.7044C25.8714 26.5017 26.1491 26.3882 26.4385 26.3884C26.7279 26.3886 27.0058 26.5024 27.2123 26.7054C27.4189 26.9084 27.5375 27.1843 27.5427 27.4736L27.5481 35.2776C27.5507 35.4241 27.5241 35.5697 27.4699 35.7057C27.4157 35.8418 27.3349 35.9657 27.2323 36.0702C27.1296 36.1746 27.0072 36.2575 26.8721 36.3141C26.737 36.3707 26.5919 36.3998 26.4453 36.3997C26.2988 36.3996 26.1537 36.3703 26.0185 36.3135C25.8833 36.2568 25.7608 36.1737 25.658 36.0691C25.5552 35.9645 25.4742 35.8405 25.4198 35.7043C25.3654 35.5682 25.3386 35.4226 25.3411 35.2761L25.3358 27.4721Z" fill="#7036BA"/>
</svg>
